<?xml version="1.0" encoding="UTF-8" standalone="no"?>
<svg
        xmlns:dc="http://purl.org/dc/elements/1.1/"
        xmlns:cc="http://creativecommons.org/ns#"
        xmlns:rdf="http://www.w3.org/1999/02/22-rdf-syntax-ns#"
        xmlns="http://www.w3.org/2000/svg"
        viewBox="0 0 237.52 53.653332"
        height="53.653332"
        width="237.52"
        xml:space="preserve"
        id="svg2"
        version="1.1"><metadata
     id="metadata8"><rdf:RDF><cc:Work
         rdf:about=""><dc:format>image/svg+xml</dc:format><dc:type
        rdf:resource="http://purl.org/dc/dcmitype/StillImage"/></cc:Work></rdf:RDF></metadata>
    <defs
            id="defs6"/>
    <g
            transform="matrix(1.3333333,0,0,-1.3333333,0,53.653333)"
            id="g10"><g
       transform="scale(0.1)"
       id="g12"><path
         id="path14"
         style="fill:#ce1e25;fill-opacity:1;fill-rule:nonzero;stroke:none"
         d="M 477.648,162.238 H 441.059 V 98.6875 h 35.625 c 23.113,0 33.468,8.6715 33.468,32.4965 0,22.636 -9.871,31.054 -32.504,31.054 z M 500.281,83.7656 547.461,3.125 H 518.09 L 477.414,79.1992 H 441.059 V 3.125 h -24.551 v 180.539 h 61.14 c 39.481,0 58.016,-16.605 58.016,-51.512 0,-27.687 -12.516,-44.5348 -35.383,-48.3864" /><path
            id="path16"
            style="fill:#ce1e25;fill-opacity:1;fill-rule:nonzero;stroke:none"
            d="m 624.941,19.2578 c 27.68,0 38.274,14.1953 38.274,55.1211 0,41.1681 -10.594,55.1211 -38.274,55.1211 -28.168,0 -39,-13.953 -39,-55.1211 0,-41.168 10.832,-55.1211 39,-55.1211 z M 624.941,0 c -43.332,0 -62.589,21.1836 -62.589,74.3789 0,53.1951 19.496,74.6211 62.589,74.6211 43.332,0 61.625,-21.426 61.625,-74.6211 C 686.566,21.1836 668.027,0 624.941,0"/><path
            id="path18"
            style="fill:#ce1e25;fill-opacity:1;fill-rule:nonzero;stroke:none"
            d="m 777.777,128.543 c -15.164,0 -27.687,-6.262 -35.148,-17.09 V 37.0625 c 5.777,-9.3867 17.816,-17.5781 35.391,-17.5781 22.382,0 37.308,10.8437 37.308,55.3789 0,43.5667 -13.965,53.6797 -37.551,53.6797 z M 781.145,0.46875 c -17.809,0 -32.739,6.75 -41.641,17.82035 L 738.777,18.0469 735.168,3.125 h -15.164 v 190.168 l 22.625,1.457 v -42.141 l -0.242,-19.257 0.484,-0.231 c 10.348,10.828 25.035,16.121 40.926,16.121 33.461,0 54.644,-19.5 54.644,-73.8943 0,-53.9219 -20.949,-74.87895 -57.296,-74.87895"/><path
            id="path20"
            style="fill:#ce1e25;fill-opacity:1;fill-rule:nonzero;stroke:none"
            d="m 924.578,19.2578 c 27.68,0 38.266,14.1953 38.266,55.1211 0,41.1681 -10.586,55.1211 -38.266,55.1211 -28.16,0 -38.992,-13.953 -38.992,-55.1211 0,-41.168 10.832,-55.1211 38.992,-55.1211 z M 924.578,0 c -43.324,0 -62.582,21.1836 -62.582,74.3789 0,53.1951 19.5,74.6211 62.582,74.6211 43.328,0 61.617,-21.426 61.617,-74.6211 C 986.195,21.1836 967.668,0 924.578,0"/><path
            id="path22"
            style="fill:#ce1e25;fill-opacity:1;fill-rule:nonzero;stroke:none"
            d="m 1113.04,146.59 26.23,-106.8752 4.34,-19.0156 h 0.73 l 3.61,19.0156 22.62,106.8752 h 22.38 L 1158.29,3.125 h -28.4 l -24.07,100.867 -4.09,19.262 H 1101 l -4.34,-19.262 -24.79,-100.867 h -27.92 l -36.34,143.465 h 22.86 l 23.83,-106.1486 3.85,-19.0156 h 0.73 l 4.09,19.0156 25.76,106.1486 h 24.31"/><path
            id="path24"
            style="fill:#ce1e25;fill-opacity:1;fill-rule:nonzero;stroke:none"
            d="m 1231.18,3.125 v 142.75 l 22.88,1.199 V 3.125 Z m 11.56,167.543 c -9.86,0 -14.68,3.125 -14.68,12.281 0,7.949 4.82,12.27 14.68,12.27 9.87,0 14.69,-4.321 14.69,-12.27 0,-8.429 -4.82,-12.281 -14.69,-12.281"/><path
            id="path26"
            style="fill:#ce1e25;fill-opacity:1;fill-rule:nonzero;stroke:none"
            d="m 1332.52,38.7422 -11.31,-15.1641 0.24,-0.7109 h 76.06 L 1396.8,3.125 h -102.08 v 16.3594 l 63.79,91.4846 11.33,15.406 -0.24,0.484 h -72.23 l 0.73,19.731 h 97.97 v -16.606 l -63.55,-91.2418"/><path
            id="path28"
            style="fill:#ce1e25;fill-opacity:1;fill-rule:nonzero;stroke:none"
            d="m 1507.01,68.6016 c -3.61,2.1679 -14.19,5.2929 -28.64,5.2929 -23.83,0 -34.18,-9.6289 -34.18,-26.7187 0,-20.457 12.28,-27.4492 28.88,-27.4492 17.82,0 33.94,12.0429 33.94,24.082 z m 3.14,-47.9024 -0.73,0.2422 c -8.41,-12.28124 -24.06,-19.984369 -42.61,-19.984369 -26.23,0 -44.05,13.722669 -44.05,45.976569 0,26.9609 17.33,43.5781 51.51,43.5781 12.28,0 24.08,-2.4101 32.98,-5.5469 v 14.2071 c 0,22.6251 -10.1,30.5701 -33.45,30.5701 -15.16,0 -27.44,-2.64 -40.21,-8.66 l -2.16,19.016 c 13.71,6.261 29.12,9.386 46.22,9.386 37.79,0 52,-15.89 52,-53.6793 V 3.125 h -17.33 l -2.17,17.5742"/><path
            id="path30"
            style="fill:#ce1e25;fill-opacity:1;fill-rule:nonzero;stroke:none"
            d="m 1567.42,3.125 v 142.508 l 18.29,1.199 1.93,-30.812 h 0.48 c 8.9,20.71 24.55,32.738 44.05,32.738 5.29,0 10.36,-0.715 14.21,-1.926 l -1.45,-23.109 c -4.33,1.453 -9.15,1.925 -14.2,1.925 -22.39,0 -40.44,-19.015 -40.44,-49.8277 V 3.125 h -22.87"/><path
            id="path32"
            style="fill:#ce1e25;fill-opacity:1;fill-rule:nonzero;stroke:none"
            d="m 1758.53,111.695 c -6.02,9.871 -18.77,16.364 -34.18,16.364 -27.93,0 -38.03,-14.922 -38.03,-53.9223 0,-40.1992 9.15,-54.8789 37.79,-54.8789 19.99,0 30.33,9.8711 34.42,17.5742 z m 5.29,-108.57 -2.88,14.9219 -0.72,0.2422 c -8.91,-11.80082 -23.11,-18.062537 -42.37,-18.062537 -38.76,0 -55.12,23.597637 -55.12,74.878937 0,48.6175 17.09,74.1365 55.36,74.1365 15.89,0 30.33,-5.535 40.44,-16.121 l 0.49,0.231 -0.49,19.257 v 40.442 l 22.87,1.457 V 3.125 h -17.58"/><path
            id="path34"
            style="fill:#ce1e25;fill-opacity:1;fill-rule:evenodd;stroke:none"
            d="m 0,360.563 24.1367,41.82 33.3164,-19.258 -24.1328,-41.82 z M 274.23,241.938 c -10.417,0 -18.863,-8.442 -18.863,-18.864 0,-10.406 8.446,-18.847 18.863,-18.847 10.411,0 18.868,8.441 18.868,18.847 0,10.422 -8.457,18.864 -18.868,18.864 M 139.391,155.805 c -11.149,0 -20.18,-9.078 -20.18,-20.254 0,-11.207 9.031,-20.27 20.18,-20.27 11.144,0 20.175,9.063 20.175,20.27 0,11.176 -9.031,20.254 -20.175,20.254 m 115.175,36.445 c -0.222,0.121 -0.421,0.273 -0.632,0.391 l -79.082,-45.657 c 2.992,-9.3 2.218,-19.742 -3.067,-28.863 l 39.117,-66.664 h 25.317 V 27.2891 H 309.77 V 3.125 H 32.5039 V 27.2891 H 101.16 V 51.457 h 42.203 v 16.6289 l -21.222,36.1721 c -0.254,0.137 -0.512,0.242 -0.77,0.379 -17.609,10.011 -23.6522,32.183 -13.488,49.523 9.531,16.235 29.89,22.473 46.914,14.965 l 82.113,47.426 c -1.297,6.418 -0.875,13.199 1.543,19.605 l -143.3319,81.438 -8.6094,-14.926 -41.789,24.137 30.1757,52.273 41.7926,-24.137 -9.441,-16.339 147.227,-83.645 c 11.043,6.285 25.074,6.797 36.914,0.078 C 309,245.02 315.043,222.848 304.879,205.512 294.699,188.188 272.18,182.234 254.566,192.25"/></g></g></svg>