<?xml version="1.0" encoding="UTF-8"?>
<svg xmlns="http://www.w3.org/2000/svg" xmlns:xlink="http://www.w3.org/1999/xlink" width="512pt" height="512pt" viewBox="0 0 512 512" version="1.1">
<g id="surface21683556">
<path style=" stroke:none;fill-rule:nonzero;fill:rgb(90.588236%,29.803923%,23.529412%);fill-opacity:1;" d="M 7.898438 256 C 7.898438 119 119 7.898438 256 7.898438 C 393 7.898438 504.101562 119 504.101562 256 C 504.101562 393 393 504.101562 256 504.101562 C 119 504.101562 7.898438 393 7.898438 256 Z M 7.898438 256 "/>
<path style=" stroke:none;fill-rule:nonzero;fill:rgb(100%,100%,100%);fill-opacity:1;" d="M 391.5 214.5 L 297 214.5 L 297 120.601562 C 297 116.601562 293.800781 113.398438 289.800781 113.398438 L 221.699219 113.398438 C 217.699219 113.398438 214.5 116.601562 214.5 120.601562 L 214.5 214.5 L 120.601562 214.5 C 116.601562 214.5 113.398438 217.699219 113.398438 221.699219 L 113.398438 290.898438 C 113.398438 294.898438 116.601562 298.101562 120.601562 298.101562 L 214.5 298.101562 L 214.5 391.5 C 214.5 395.5 217.699219 398.699219 221.699219 398.699219 L 289.800781 398.699219 C 293.800781 398.699219 297 395.5 297 391.5 L 297 298.101562 L 391.5 298.101562 C 395.5 298.101562 398.699219 294.898438 398.699219 290.898438 L 398.699219 221.699219 C 398.699219 217.699219 395.398438 214.5 391.5 214.5 Z M 391.5 214.5 "/>
</g>
</svg>
